<?xml version="1.0" encoding="utf-8"?>
<!-- Generator: Adobe Illustrator 26.2.1, SVG Export Plug-In . SVG Version: 6.00 Build 0)  -->
<svg version="1.1" id="Capa_1" xmlns="http://www.w3.org/2000/svg" xmlns:xlink="http://www.w3.org/1999/xlink" x="0px" y="0px"
	 viewBox="0 0 35 35" style="enable-background:new 0 0 35 35;" xml:space="preserve">
<style type="text/css">
	.st0{fill-rule:evenodd;clip-rule:evenodd;}
</style>
<path class="st0" d="M22,1h-9c-3,0-5.5,2.5-5.5,5.5v13.1c0,3,2.5,5.5,5.5,5.5h3.4l0,6.8h-5c-0.6,0-1,0.5-1,1s0.5,1,1,1h12
	c0.6,0,1-0.5,1-1s-0.5-1-1-1h-5v-6.8H22c3,0,5.5-2.5,5.5-5.5V6.5C27.5,3.5,25,1,22,1z M25.4,19.6c0,1.9-1.5,3.4-3.4,3.4h-9
	c-1.9,0-3.4-1.5-3.4-3.4V6.5c0-1.9,1.5-3.4,3.4-3.4h9c1.9,0,3.4,1.5,3.4,3.4V19.6z"/>
<path d="M22.5,12v-1.8c0-0.1,0-0.2,0-0.4c-0.1-1.3-1.1-2.3-2.3-2.6c-1.8-0.4-3.6-0.4-5.4,0c-1.2,0.3-2.1,1.3-2.3,2.6
	c0,0.1,0,0.2,0,0.4V12c-0.6,0-1,0.4-1,1v0.5c0,0.6,0.4,1,1,1v1c0,0.8,0.4,1.5,1,2v0.3c0,0.7,0.6,1.3,1.3,1.3c0.6,0,1.1-0.4,1.2-1H19
	c0.1,0.7,0.8,1.1,1.5,1c0.6-0.1,1-0.6,1-1.2v-0.3c0.6-0.5,1-1.2,1-2v-1c0.6,0,1-0.4,1-1V13C23.5,12.4,23.1,12,22.5,12z M13.5,13.5
	v-3h8v3H13.5z M15,8.3c1.6-0.4,3.3-0.4,5,0c0.6,0.2,1.2,0.6,1.4,1.2h-1.9C19.5,9.2,19.3,9,19,9h-3c-0.3,0-0.5,0.2-0.5,0.5h-1.9
	C13.9,8.9,14.4,8.4,15,8.3z M20,17h-5c-0.8,0-1.5-0.7-1.5-1.5v-1h1V15c0,0.3,0.2,0.5,0.5,0.5s0.5-0.2,0.5-0.5v-0.5h4V15
	c0,0.3,0.2,0.5,0.5,0.5c0.3,0,0.5-0.2,0.5-0.5v-0.5h1v1C21.5,16.3,20.8,17,20,17z"/>
</svg>
